<svg xmlns="http://www.w3.org/2000/svg" xmlns:xlink="http://www.w3.org/1999/xlink" viewBox="0,0,256,256" width="48px" height="48px" fill-rule="nonzero"><g fill="#387dbd" fill-rule="nonzero" stroke="none" stroke-width="1" stroke-linecap="butt" stroke-linejoin="miter" stroke-miterlimit="10" stroke-dasharray="" stroke-dashoffset="0" font-family="none" font-weight="none" font-size="none" text-anchor="none" style="mix-blend-mode: normal"><g transform="scale(5.12,5.12)"><path d="M4,36.315l9,-4.909v-12.812l-9,-4.909z"></path><path d="M45.132,38.068l-8.954,-5.223l-10.178,5.481v10.265z"></path><path d="M4.915,38.094l19.085,10.497v-10.265l-9.817,-5.287z"></path><path d="M24,1.409l-19.085,10.497l9.268,5.055l9.817,-5.287z"></path><path d="M37,18.594v-0.996l-1.183,-0.637l-10.817,5.9l-10.817,-5.9l-1.183,0.637v0.996l11,6v13.732l1,0.538l1,-0.538v-13.732z"></path><path d="M26,1.409v10.265l9.817,5.287l9.268,-5.055z"></path><path d="M46,36.258v-22.573l-9,4.909v12.414z"></path></g></g></svg>